HIERARCHY
ROOT Hips
{
	OFFSET 0.00000 0.00000 0.00000
	CHANNELS 6 Xposition Yposition Zposition Yrotation Zrotation Xrotation 
	JOINT Lumbar
	{
		OFFSET 0 0 0
		CHANNELS 3 Zrotation Xrotation Yrotation
		JOINT Neck
		{
			OFFSET 0.00 0.2701 0.00
			CHANNELS 3 Zrotation Xrotation Yrotation
			End Site
			{
				OFFSET 0.00 0.1379 0.00
			}
		}
		JOINT RightShoulder
		{
			OFFSET 0.0119 0.2289 0.1181
			CHANNELS 3 Zrotation Xrotation Yrotation
			JOINT RightElbow
			{
				OFFSET 0.00 -0.1475 0.00
				CHANNELS 2 Zrotation Yrotation
				JOINT RightWrist
				{
					OFFSET 0.00 -0.1605 0.00
					CHANNELS 2 Zrotation Xrotation
					End Site
					{
						OFFSET 0.0040 -0.1068 0.0006
					}
				}
			}
		}
		JOINT LeftShoulder
		{
			OFFSET 0.0119 0.2289 -0.1181
			CHANNELS 3 Zrotation Xrotation Yrotation
			JOINT LeftElbow
			{
				OFFSET 0.00 -0.1475 0.00
				CHANNELS 2 Zrotation Yrotation
				JOINT LeftWrist
				{
					OFFSET 0.00 -0.1605 0.00
					CHANNELS 2 Zrotation Xrotation
					End Site
					{
						OFFSET 0.0040 -0.1068 -0.0006
					}
				}
			}
		}
	}
	JOINT RightHip
	{
		OFFSET 0.0316 -0.0424 0.0458
		CHANNELS 3 Zrotation Xrotation Yrotation
		JOINT RightKnee
		{
			OFFSET 0.00 -0.2438 0.00
			CHANNELS 1 Zrotation
			JOINT RightAnkle
			{
				OFFSET 0.00 -0.2449 0.00
				CHANNELS 3 Zrotation Xrotation Yrotation
				End Site
				{
					OFFSET 0.1237 -0.0542 0.0051
				}
			}
		}
	}
	JOINT LeftHip
	{
		OFFSET 0.0316 -0.0424 -0.0458
		CHANNELS 3 Zrotation Xrotation Yrotation
		JOINT LeftKnee
		{
			OFFSET 0.00 -0.2438 0.00
			CHANNELS 1 Zrotation
			JOINT LeftAnkle
			{
				OFFSET 0.00 -0.2449 0.00
				CHANNELS 3 Zrotation Xrotation Yrotation
				End Site
				{
					OFFSET 0.1237 -0.0542 -0.0051
				}
			}
		}
	}
}
MOTION
Frames: 31
Frame Time: 0.02
-2e-05 -0.00028 0.00064 27.83962 -20.89691 -3.15914 46.36488 -0.53216 -7.8248 -10.83701 1.97465 -0.09001 -21.15167 -5.14001 -5.24219 28.14965 96.91483 8.40017 1.19969 -25.91298 6.17775 4.00613 31.28611 -107.74451 16.85861 -1.33455 28.58962 -2.36387 3.98557 -20.40202 -7.9163 -5.74952 -3.78587 33.30369 5.39359 1.95585 -24.35917 -6.67629 3.7177 2.51164
-0.00074 -0.00039 0.00063 27.76837 -21.04921 -3.17348 46.23888 -0.47284 -7.83821 -10.40655 2.10871 -0.09096 -21.00999 -5.23648 -5.44665 28.01784 96.80316 8.32419 1.19123 -25.73429 6.34939 3.70322 31.49867 -107.6744 16.78 -1.34164 28.83386 -2.49943 3.38341 -20.40465 -7.85024 -5.69992 -3.75331 33.53184 5.34498 1.82901 -24.37432 -6.67835 3.72746 2.52647
-0.00146 -0.00049 0.00061 27.69736 -21.20103 -3.18778 46.11325 -0.41371 -7.85163 -9.97748 2.24244 -0.09191 -20.86899 -5.33279 -5.65041 27.88679 96.69179 8.24845 1.18279 -25.55608 6.52037 3.40134 31.71114 -107.60457 16.70153 -1.34873 29.07737 -2.63465 2.78289 -20.40729 -7.78438 -5.65045 -3.72083 33.75933 5.2965 1.70269 -24.38944 -6.6804 3.73718 2.54125
-0.00217 -0.00059 0.00059 27.62634 -21.35286 -3.20207 45.98763 -0.35457 -7.86501 -9.54835 2.3761 -0.09286 -20.72779 -5.42898 -5.85424 27.75545 96.58045 8.17271 1.17436 -25.37793 6.69148 3.09932 31.92314 -107.53446 16.62307 -1.35577 29.32087 -2.76981 2.18254 -20.40992 -7.71852 -5.601 -3.68837 33.98679 5.24804 1.57625 -24.40455 -6.68245 3.74692 2.55604
-0.00289 -0.0007 0.00058 27.55506 -21.50516 -3.21639 45.86167 -0.29523 -7.87836 -9.11784 2.51005 -0.09381 -20.58581 -5.52527 -6.05878 27.6232 96.46885 8.09672 1.1659 -25.19933 6.86322 2.7964 32.13499 -107.46467 16.54472 -1.36289 29.56507 -2.90527 1.58066 -20.41256 -7.65247 -5.55141 -3.65581 34.21489 5.19944 1.44928 -24.41969 -6.68451 3.75669 2.57088
-0.0036 -0.0008 0.00056 27.48463 -21.65596 -3.23066 45.73674 -0.23652 -7.89189 -8.69183 2.64327 -0.09476 -20.44687 -5.62162 -6.26087 27.49467 96.35797 8.02153 1.15749 -25.02195 7.03258 2.49679 32.34873 -107.39511 16.4661 -1.36996 29.80713 -3.04 0.98305 -20.41518 -7.58699 -5.50221 -3.62351 34.44106 5.15122 1.32437 -24.43476 -6.68652 3.76631 2.58552
-0.00432 -0.0009 0.00055 27.41258 -21.80962 -3.24502 45.60987 -0.17663 -7.90508 -8.2572 2.77785 -0.0957 -20.30199 -5.71775 -6.4677 27.35887 96.24574 7.94482 1.149 -24.84233 7.20668 2.19047 32.55851 -107.32355 16.38758 -1.37688 30.05324 -3.17605 0.37748 -20.41783 -7.52045 -5.45229 -3.59074 34.67089 5.10229 1.19536 -24.44995 -6.68865 3.77623 2.60057
-0.00504 -0.001 0.00053 27.342 -21.96061 -3.25929 45.4848 -0.11783 -7.91854 -7.8306 2.91114 -0.09665 -20.16253 -5.81406 -6.67011 27.22963 96.13479 7.86951 1.14059 -24.66473 7.37615 1.89103 32.77177 -107.25676 16.30996 -1.38437 30.29557 -3.31087 -0.22072 -20.42046 -7.45487 -5.40303 -3.5584 34.8973 5.05405 1.0703 -24.46503 -6.69066 3.78585 2.61523
-0.00575 -0.00111 0.00051 27.2733 -22.10855 -3.27347 45.36183 -0.06033 -7.9325 -7.41332 3.04307 -0.09761 -20.02993 -5.91074 -6.86738 27.10899 96.02521 7.79589 1.13227 -24.48968 7.54107 1.59714 32.99018 -107.18416 16.22942 -1.39088 30.53356 -3.44431 -0.81032 -20.42306 -7.39047 -5.35457 -3.52659 35.11984 5.00648 0.94936 -24.47999 -6.69255 3.7952 2.62943
-0.00648 -0.00121 0.0005 27.19404 -22.2747 -3.28821 45.22645 0.00477 -7.9441 -6.94089 3.18346 -0.09852 -19.85858 -6.00577 -7.09501 26.94064 95.90715 7.71247 1.12336 -24.3002 7.7355 1.26269 33.18167 -107.11001 16.1536 -1.39799 30.79741 -3.58604 -1.45063 -20.42581 -7.31931 -5.30147 -3.49173 35.36559 4.95452 0.80257 -24.49568 -6.69521 3.8064 2.64633
-0.00717 -0.00131 0.00047 27.13687 -22.40197 -3.30176 45.11749 0.05376 -7.96035 -6.58581 3.3056 -0.09953 -19.76851 -6.10394 -7.25808 26.87176 95.80738 7.64976 1.11574 -24.14104 7.86554 1.01937 33.42815 -107.06148 16.07555 -1.40704 31.00611 -3.71005 -1.98312 -20.42823 -7.26243 -5.25818 -3.46331 35.56172 4.91218 0.71168 -24.50982 -6.69618 3.8135 2.65748
-0.0077 -0.0014 0.00034 27.14253 -22.42541 -3.31202 45.07968 0.0586 -7.99204 -6.54788 3.38041 -0.10077 -19.90762 -6.21348 -7.24649 27.08857 95.75509 7.64429 1.11142 -24.06733 7.83604 0.97907 33.8423 -106.88724 15.92365 -1.39311 31.06689 -3.78699 -2.22421 -20.42978 -7.24505 -5.24201 -3.45258 35.62583 4.89334 0.76412 -24.51974 -6.69299 3.81084 2.65334
-0.00818 -0.00148 0.00017 27.16996 -22.40929 -3.32112 45.06864 0.04725 -8.02791 -6.62864 3.43642 -0.10211 -20.12725 -6.32559 -7.1697 27.40305 95.72172 7.65961 1.10842 -24.02393 7.73972 1.03623 34.3087 -106.76581 15.77917 -1.38499 31.0717 -3.84587 -2.35643 -20.43098 -7.24198 -5.23566 -3.44831 35.63938 4.88461 0.8741 -24.52811 -6.68804 3.80383 2.64336
-0.00868 -0.00156 2e-05 27.18594 -22.40939 -3.3307 45.04622 0.04325 -8.06009 -6.65831 3.49921 -0.10339 -20.30593 -6.43476 -7.12101 27.6643 95.68139 7.66508 1.10496 -23.96485 7.66146 1.08309 34.74011 -106.76003 15.67927 -1.39443 31.0999 -3.91196 -2.53528 -20.43232 -7.23216 -5.2247 -3.44107 35.67332 4.87327 0.96493 -24.53719 -6.68355 3.79775 2.63572
-0.00921 -0.00165 -0.00012 27.20846 -22.41675 -3.34028 45.02054 0.03922 -8.09977 -6.67636 3.56929 -0.10471 -20.50294 -6.55163 -7.0783 27.96242 95.63396 7.67203 1.10094 -23.91272 7.63082 0.99813 35.21862 -106.20287 15.38893 -1.32424 31.13654 -3.98212 -2.72505 -20.43378 -7.22338 -5.21438 -3.43398 35.71793 4.85397 1.02827 -24.54621 -6.68037 3.79583 2.62929
-0.00967 -0.00172 -0.00029 27.2226 -22.39969 -3.34981 45.00798 0.03143 -8.12489 -6.74655 3.61986 -0.10599 -20.68116 -6.65281 -7.0081 28.20772 95.60607 7.68115 1.09839 -23.85474 7.49046 1.19646 35.612 -106.75892 15.48199 -1.41423 31.14241 -4.03966 -2.86738 -20.43487 -7.21585 -5.20505 -3.42809 35.72854 4.85317 1.16006 -24.55502 -6.67417 3.78451 2.61909
-0.00994 -0.00176 -0.00051 27.20763 -22.32417 -3.35759 45.02528 0.01711 -8.10804 -6.93349 3.62015 -0.1071 -20.78506 -6.71236 -6.87447 28.27597 95.62537 7.68816 1.09954 -23.76115 7.01741 2.27902 35.75231 -110.79439 16.76354 -2.00696 31.07654 -4.06556 -2.89591 -20.43526 -7.20814 -5.19608 -3.42419 35.65595 4.90493 1.4879 -24.56354 -6.65915 3.74575 2.59863
-0.01014 -0.00178 -0.00076 27.18357 -22.22547 -3.36573 45.0549 -0.00045 -8.07647 -7.16875 3.60171 -0.10816 -20.86789 -6.75565 -6.71608 28.28912 95.66415 7.69718 1.10213 -23.663 6.44429 3.62195 35.80612 -115.87637 18.40809 -2.75003 30.98164 -4.07963 -2.88212 -20.43527 -7.20121 -5.18775 -3.42123 35.55111 4.97424 1.87891 -24.57193 -6.6413 3.69813 2.57478
-0.01037 -0.0018 -0.001 27.16407 -22.13798 -3.37495 45.07863 -0.01642 -8.05216 -7.38027 3.59242 -0.10924 -20.96195 -6.80483 -6.57134 28.33212 95.69537 7.70726 1.10408 -23.57462 5.948 4.76038 35.90292 -120.19703 19.79765 -3.3826 30.90053 -4.09992 -2.89412 -20.43531 -7.194 -5.17913 -3.41767 35.46233 5.0329 2.22681 -24.58041 -6.62536 3.65625 2.55332
-0.0106 -0.00183 -0.00122 27.14353 -22.04667 -3.37885 45.10414 -0.03333 -8.02577 -7.60217 3.57951 -0.11033 -21.05127 -6.86027 -6.41423 28.35784 95.72159 7.70975 1.106 -23.4542 5.31944 6.25716 35.98595 -125.70057 21.55938 -4.18984 30.81543 -4.11601 -2.87518 -20.43591 -7.18699 -5.1709 -3.41507 35.36637 5.10312 2.63655 -24.58868 -6.60677 3.60709 2.52813
-0.01083 -0.00185 -0.00149 27.12272 -21.9578 -3.39398 45.12897 -0.049 -7.99997 -7.81398 3.57026 -0.1114 -21.14512 -6.89899 -6.27782 28.40567 95.76284 7.72821 1.10831 -23.39982 4.94042 7.07926 36.07654 -129.01986 22.64224 -4.67342 30.73186 -4.13828 -2.91139 -20.43529 -7.17956 -5.16184 -3.41061 35.27772 5.15342 2.93298 -24.59743 -6.59298 3.57093 2.50992
-0.01111 -0.0018 -0.00186 27.10332 -21.88554 -3.43949 45.14512 -0.05904 -7.98084 -7.97273 3.57319 -0.11243 -21.2499 -6.89386 -6.20543 28.52239 95.8389 7.79078 1.11134 -23.52182 5.30187 5.8775 36.20685 -125.77667 21.67359 -4.18702 30.66452 -4.1808 -3.11737 -20.4311 -7.17046 -5.15044 -3.40052 35.22238 5.14319 2.89057 -24.60695 -6.59372 3.57374 2.51236
-0.0114 -0.00173 -0.00229 27.08395 -21.81561 -3.49637 45.16075 -0.06793 -7.96243 -8.12207 3.58101 -0.11344 -21.36066 -6.87286 -6.15503 28.66314 95.92984 7.8693 1.11472 -23.71139 5.91335 4.00506 36.34724 -120.3492 20.02548 -3.37687 30.59865 -4.23016 -3.38008 -20.42576 -7.16082 -5.13806 -3.38852 35.17433 5.11245 2.73391 -24.61708 -6.59924 3.58978 2.52183
-0.01168 -0.00168 -0.0027 27.06439 -21.74243 -3.54845 45.17896 -0.07816 -7.9428 -8.28327 3.58832 -0.11446 -21.4729 -6.86011 -6.09422 28.79693 96.01496 7.93988 1.11792 -23.8748 6.39283 2.50334 36.48516 -116.10311 18.74634 -2.74103 30.52977 -4.27606 -3.61198 -20.4211 -7.15161 -5.12607 -3.37757 35.12032 5.09191 2.63581 -24.62727 -6.60222 3.59926 2.52778
-0.01195 -0.00162 -0.00306 27.04494 -21.67895 -3.59909 45.18764 -0.08495 -7.92674 -8.41219 3.58772 -0.11548 -21.56742 -6.84206 -6.03379 28.91488 96.09616 8.01281 1.12118 -24.01978 6.94575 0.73392 36.61402 -111.10105 17.22632 -1.99644 30.47161 -4.3223 -3.8613 -20.41567 -7.14188 -5.11455 -3.366 35.07816 5.06844 2.5108 -24.63595 -6.60682 3.61086 2.5351
-0.01226 -0.00157 -0.00355 27.02578 -21.59451 -3.65529 45.216 -0.09873 -7.90325 -8.60799 3.60502 -0.1165 -21.69969 -6.83192 -5.97873 29.06879 96.18961 8.08539 1.12448 -24.21813 7.40715 -0.64247 36.76169 -107.13591 16.04127 -1.39858 30.38949 -4.37055 -4.09124 -20.41168 -7.13283 -5.10157 -3.35511 35.0112 5.04576 2.41527 -24.64801 -6.60902 3.62112 2.54116
-0.01268 -0.00158 -0.00435 27.0042 -21.46669 -3.72525 45.2972 -0.13044 -7.86228 -8.96662 3.67065 -0.11746 -21.93961 -6.844 -5.92889 29.34608 96.30525 8.14566 1.12671 -24.55623 7.54914 -0.75561 36.99249 -106.60821 15.9505 -1.29246 30.26266 -4.41438 -4.22769 -20.41154 -7.12827 -5.0869 -3.34787 34.89511 5.03185 2.41633 -24.66864 -6.60521 3.62612 2.54299
-0.01314 -0.00161 -0.00528 26.98356 -21.31559 -3.80024 45.39802 -0.16936 -7.81336 -9.39558 3.75432 -0.11847 -22.21497 -6.8653 -5.88522 29.65366 96.43337 8.20587 1.12908 -24.94355 7.59229 -0.45467 37.23791 -107.18607 16.21725 -1.34305 30.10874 -4.46145 -4.34644 -20.41321 -7.12409 -5.07051 -3.34121 34.75095 5.01896 2.45276 -24.69284 -6.59852 3.62905 2.54315
-0.01357 -0.00163 -0.00618 26.96466 -21.16469 -3.87206 45.4914 -0.2062 -7.76598 -9.80993 3.82957 -0.11944 -22.47295 -6.88476 -5.84089 29.92768 96.5618 8.27166 1.13223 -25.30319 7.68439 -0.35286 37.45256 -107.22732 16.31725 -1.31629 29.9518 -4.51275 -4.49238 -20.41404 -7.11789 -5.05333 -3.33331 34.60484 5.00465 2.48141 -24.71574 -6.59198 3.63182 2.54345
-0.01405 -0.00163 -0.00697 26.93664 -21.05537 -3.94779 45.58036 -0.23854 -7.7271 -10.15717 3.90535 -0.12032 -22.7428 -6.8938 -5.78584 30.28506 96.66844 8.31678 1.13223 -25.68977 7.76669 -0.22525 37.76158 -107.34014 16.41439 -1.30418 29.85552 -4.54089 -4.56501 -20.41393 -7.11885 -5.04221 -3.32915 34.51737 4.99413 2.47231 -24.73702 -6.59043 3.6396 2.54658
-0.01445 -0.00168 -0.00802 26.92778 -20.85682 -4.01671 45.68091 -0.28127 -7.66895 -10.65295 3.98495 -0.1216 -22.98836 -6.92686 -5.75733 30.47699 96.81958 8.40194 1.13833 -26.02834 7.84451 -0.04786 37.88719 -107.59123 16.60799 -1.30301 29.63161 -4.61708 -4.77838 -20.41746 -7.10575 -5.01876 -3.31777 34.30563 4.97565 2.55018 -24.76285 -6.57785 3.6364 2.54339
